<?xml version="1.0" encoding="UTF-8" standalone="no"?>
<svg width="32px" height="33px" viewBox="0 0 32 33" version="1.1" xmlns="http://www.w3.org/2000/svg" xmlns:xlink="http://www.w3.org/1999/xlink" xmlns:sketch="http://www.bohemiancoding.com/sketch/ns">
    <!-- Generator: Sketch 3.4.2 (15857) - http://www.bohemiancoding.com/sketch -->
    <title>Instagram Glyph</title>
    <desc>Created with Sketch.</desc>
    <defs>
        <path id="path-1" d="M0,0.17328418 L32,0.17328418 L32,32.1732842 L0,32.1732842 L0,0.17328418 Z"></path>
    </defs>
    <g id="Page-1" stroke="none" stroke-width="1" fill="none" fill-rule="evenodd" sketch:type="MSPage">
        <g id="Instagram-Glyph" sketch:type="MSLayerGroup">
            <mask id="mask-2" sketch:name="Clip 2" fill="white">
                <use xlink:href="#path-1"></use>
            </mask>
            <g id="Clip-2"></g>
            <path d="M28.2603637,32.1184485 L3.68533681,32.1184485 C1.65023548,32.1184485 8.46665373e-05,30.4677332 8.46665373e-05,28.4312208 L8.46665373e-05,3.85845166 C8.46665373e-05,1.8230681 1.65023548,0.173199513 3.68533681,0.173199513 L28.2603637,0.173199513 C30.2957473,0.173199513 31.9456159,1.8230681 31.9456159,3.85845166 L31.9456159,28.4312208 C31.9456159,30.4677332 30.2957473,32.1184485 28.2603637,32.1184485 L28.2603637,32.1184485 Z M15.9727092,10.0021378 C12.5795566,10.0021378 9.82930521,12.752107 9.82930521,16.1452596 C9.82930521,19.5378477 12.5795566,22.2892279 15.9727092,22.2892279 C19.3658617,22.2892279 22.1166775,19.5378477 22.1166775,16.1452596 C22.1166775,12.752107 19.3658617,10.0021378 15.9727092,10.0021378 L15.9727092,10.0021378 Z M28.2603637,5.08696312 C28.2603637,4.40878415 27.7100312,3.85845166 27.0304411,3.85845166 L23.345189,3.85845166 C22.6664456,3.85845166 22.1166775,4.40878415 22.1166775,5.08696312 L22.1166775,8.77362637 C22.1166775,9.45180534 22.6664456,10.0021378 23.345189,10.0021378 L27.0304411,10.0021378 C27.7100312,10.0021378 28.2603637,9.45180534 28.2603637,8.77362637 L28.2603637,5.08696312 Z M28.2603637,13.6871078 L25.4793502,13.6871078 C25.6819854,14.4736599 25.8016475,15.2954897 25.8016475,16.1452596 C25.8016475,21.5746424 21.4012453,25.9747623 15.9727092,25.9747623 C10.5444552,25.9747623 6.14377084,21.5746424 6.14377084,16.1452596 C6.14377084,15.2954897 6.26399732,14.4736599 6.46663256,13.6871078 L3.68533681,13.6871078 L3.68533681,27.203556 C3.68533681,27.8811705 4.23566931,28.4312208 4.91525938,28.4312208 L27.0304411,28.4312208 C27.7100312,28.4312208 28.2603637,27.8811705 28.2603637,27.203556 L28.2603637,13.6871078 Z" id="Fill-1" fill="#231F1F" sketch:type="MSShapeGroup" mask="url(#mask-2)"></path>
        </g>
    </g>
</svg>