<svg width="230" height="218" viewBox="0 0 230 218" xmlns="http://www.w3.org/2000/svg"><title>Group</title><g fill="none" fill-rule="evenodd"><path d="M226.392 110.51c0-1.48 1.637-7.17-6.002-7.17-4.503 0-13.508 13.998-20.194 25.605 1.228-4.438 2.592-9.672 3.683-16.045.546-3.414-3.002-4.78-6.822-4.78 0 0-8.732 29.588-8.732 38.464 0 8.877 4.365 13.542 7.094 13.542 2.73 0-.273-2.958-.273-8.876 0-2.96.547-5.918 1.365-9.218 5.594-13.087 19.648-30.725 20.738-30.725 1.637 0-3.547 6.6-3.138 10.81.272 4.097 4.503 8.422 6.96 8.422 2.592 0 1.636-2.732 1.5-5.01-.137-2.16 3.957-13.426 3.82-15.02zM176.59 109.94c3.822 0 5.73 8.536 2.456 17.754-2.727 7.625-9.958 10.924-15.417 11.948 2.456-10.014 9.822-29.7 12.96-29.7zm7.37 37.554s-5.73 8.877-14.19 8.877c-6.96 0-7.096-6.6-7.096-11.834 0-.455 0-1.024.275-1.82 6.138-.91 17.325-4.44 21.555-16.388 5.184-14.565-2.185-18.89-9.824-18.89-3.955 0-20.465 16.16-20.465 37.098 0 11.038 10.506 15.248 15.282 15.248 9.14 0 16.917-8.65 16.917-10.924 0-3.187-2.455-1.366-2.455-1.366z" fill="#465780"/><path d="M145.755 107.437c-7.23 0-14.462 7.284-19.92 14.68.14-1.024.273-1.82.273-2.39 0-4.78-5.184-4.323-7.094-4.323 0 0-12.962 67.71-15.828 77.495-3.274 11.265-9.275 21.28-14.735 21.28-12.004 0-17.33-22.3-9.96-22.3 3 0 2.493 12.206 8.1 10.495 6.27-1.914 2.296-13.244-7.555-13.226-11.597.02-8.32 27.988 9.416 27.988 12.69 0 19.24-13.2 22.65-24.124.956-3.073 4.64-18.89 8.188-35.164.546 3.87 4.91 6.94 14.054 6.94 13.098 0 29.47-57.353 12.413-57.353zm-6.82 34.48c-9.006.912-15.827 5.577-18.557 10.47 1.092-5.46 2.184-10.696 3.14-15.476 6.82-12.516 17.463-25.376 21.556-25.376 3.955 0-.41 16.5-6.14 30.384zm-11.46 18.323c-9.415 0-1.64-11.607 9.822-14.453-3.547 8.08-7.505 14.453-9.823 14.453zM110.01 89.458s-3 4.55-3 10.924c0 2.162 7.774 3.87 9.823-6.145.68-3.413-3.004-4.78-6.824-4.78z" fill="#465780"/><path d="M111.783 112.558c-3.547 20.03-8.732 28.906-8.732 38.465 0 5.916 3.002 8.76.275 8.76-2.73 0-7.096-4.664-7.096-13.54s8.73-38.464 8.73-38.464c3.82 0 7.37 1.364 6.823 4.778z" fill="#465780"/><path d="M85.88 179.734c-3.516-.43-4.502-3.982-4.502-9.56 0-29.017 17.295-57.9 5.287-57.9-6.41 0-16.78 11.608-22.513 18.89 4.504-17.75 11.19-41.99 11.19-54.62 0-3.415-3.002-4.78-6.823-4.78 0 0-16.646 67.368-16.646 76.244 0 8.876 4.364 14.793 7.094 14.793 2.73 0 1.093-6.257 1.093-12.175 0-1.366.272-3.528.818-6.145 5.73-14.34 19.102-24.695 21.012-24.695 3.41 0-5.356 15.335-7.743 37.305-1.004 9.236-.77 26.553 12.21 26.553 7.225 0 13.372-8.65 13.372-10.925 0-3.186-1.94-1.365-1.94-1.365-2.39 4.68-6.32 9.064-11.91 8.38zM52.955 87.637c0-1.366-3.957 1.82-3.957-3.983 0-5.918 6.685-15.59-1.093-21.963-9.824-8.307-40.93 31.295-40.93 51.21 0 20.03 35.746 26.06 35.746 41.878 0 15.817-21.692 18.776-26.877 18.776-4.913 0-11.324-2.618-11.324-7.852 0-10.697 9.686-16.728 20.328-16.728 12.416 0-11.462 7.624-1.64 15.704 9.69 8.08 21.286-18.89.82-18.89-15.28 0-24.012 12.404-24.012 21.393 0 5.577 3.684 13.998 19.238 13.998 15.553 0 30.7-9.445 30.7-22.19 0-24.125-34.384-28.905-34.384-43.13 0-14.224 23.604-44.152 28.38-44.152 5.594 0-6.14 9.9-6.14 16.84 0 7.626 15.145 4.212 15.145-.91z" fill="#465780"/><path d="M76.682 58.337C93.874 9.894 187.522.88 211.556 62.347"/><path d="M68.507 45.906c-1.796 3.332-1.187 5.445 1.28 6.885l.395.215c1.384.746 2.823.574 4.484-.68l2.69-2.083c.824-.65 1.5-.687 2.375-.215l.283.153c1.13.608 1.334 1.448.314 3.34-.502.93-1.53 2.16-2.495 3.136l2.086 1.27c1.07-1.173 1.992-2.277 2.556-3.322 1.81-3.36 1.203-5.474-1.324-6.87l-.62-.336c-1.413-.76-2.952-.608-4.596.618L73.26 50c-.91.675-1.432.83-2.137.45l-.254-.136c-1.017-.548-1.243-1.618-.27-3.424.442-.818 1.028-1.633 1.786-2.5l-2.003-1.15c-.923 1.104-1.42 1.82-1.876 2.666zM90.215 22.09l-2.18 1.89 6.74 11.688-10.957-8.032-2.665 2.312L87.53 41.95l-10.593-8.346-2.18 1.89 12.967 9.47 2.593-2.247-6.276-12.132 11.098 7.95 2.593-2.247-7.515-14.2zm11.024-6.208c-3.36 1.52-4.123 4.117-2.604 7.477l2.075 4.588c1.56 3.448 3.816 4.47 7.76 2.685 1.112-.502 2.483-1.44 3.664-2.253l-1.037-2.137c-.9.654-2.36 1.63-3.587 2.187-2.075.937-3.352.527-4.25-1.46l-.78-1.723 7.51-3.396-1.36-3.01c-1.532-3.39-4.118-4.437-7.39-2.958zm.938 2.076c1.52-.687 2.965-.215 3.837 1.714l.593 1.315-5.026 2.272-.634-1.404c-.82-1.81-.26-3.225 1.23-3.898zm14.375-7.788c-3.532 1.062-4.63 3.536-3.57 7.068l1.45 4.823c1.09 3.625 3.192 4.935 7.337 3.69 1.168-.352 2.65-1.1 3.93-1.75l-.747-2.256c-.978.53-2.554 1.305-3.844 1.693-2.18.654-3.393.08-4.02-2.007l-.545-1.813 7.893-2.373-.95-3.164c-1.07-3.56-3.496-4.943-6.935-3.91zm.655 2.183c1.597-.48 2.968.178 3.576 2.206l.416 1.38-5.283 1.588-.443-1.474c-.573-1.904.168-3.232 1.734-3.7zm13.94-8.86l-2.2.245-.047 4.2-2.23.25.248 2.23 2.23-.248.994 8.89c.384 3.445 2.066 4.644 5.413 4.27.956-.105 1.826-.396 2.507-.665l-.316-2.257c-.62.23-1.654.508-2.58.61-1.37.154-2.11-.41-2.29-2.035l-1.017-9.115L136 9.406l-.25-2.232-4.143.462-.463-4.143zm19.817-2.55l-2.72-.192-1.522 21.854 2.72.19.583-8.384 4.695 8.75 3.265.228-5.085-9.163 5.788-6.477-3.04-.212-5.595 6.49.912-13.084zm15.06 8.534l-2.674-.532-3.053 15.35 2.674.532 3.055-15.35zm-.12-6.465c-1.1-.22-1.83.158-2.018 1.102l-.182.913c-.18.912.348 1.54 1.45 1.76 1.13.225 1.86-.154 2.043-1.065l.18-.912c.188-.944-.34-1.573-1.474-1.798zm10.897 5.37l-2.092-.722-1.848 3.77-2.122-.733-.735 2.122 2.122.735-2.926 8.454c-1.132 3.272-.128 5.08 3.053 6.18.91.316 1.82.428 2.55.476l.685-2.173a11.92 11.92 0 0 1-2.59-.558c-1.303-.45-1.73-1.276-1.196-2.823l3-8.666 3.94 1.363.735-2.123-3.94-1.363 1.365-3.94zm12.81 9.976c-3.557-1.848-6.127-.798-7.843 2.504l-2.188 4.212c-1.774 3.415-1.012 6.052 2.432 7.84.74.386 1.638.743 3.124 1.153l1.05-2.164c-1.113-.29-1.9-.516-3.037-1.107-1.65-.858-2.26-2.33-1.24-4.294l2.382-4.583c.946-1.822 2.42-2.36 4.21-1.427.94.488 1.748 1.088 2.654 1.848l1.167-2.104c-1.106-.935-1.828-1.42-2.71-1.878zm14.954 3.407l-2.053-1.794-14.418 16.49 2.053 1.796 7.156-8.186c1.777-.618 3.47-.46 4.41.363.92.804 1 2.025-.54 3.787l-6.778 7.75 2.054 1.796 7.03-8.04c2.257-2.584 2.366-5.046.313-6.84-1.207-1.056-2.836-1.288-4.716-.844l5.49-6.277zm10.75 20.75c-2.058-3.058-4.747-3.376-7.806-1.317l-4.178 2.812c-3.14 2.113-3.77 4.51-1.352 8.1.682 1.01 1.834 2.206 2.835 3.234l1.933-1.378c-.796-.78-2.002-2.055-2.754-3.173-1.272-1.888-1.082-3.215.727-4.432l1.57-1.056 4.604 6.838 2.74-1.845c3.087-2.076 3.69-4.802 1.682-7.782zm-1.89 1.272c.93 1.384.708 2.888-1.05 4.07l-1.195.806-3.08-4.577 1.278-.86c1.65-1.11 3.136-.795 4.048.56zM223.594 58.4c-.677-1.524-2.184-2.47-4.222-2.793l2.14-.95-1.04-2.346-14.308 6.346 1.105 2.492 9.94-4.407c1.87.19 3.34 1.046 3.845 2.19.508 1.142.025 2.27-2.087 3.205l-9.41 4.173 1.104 2.492 9.763-4.328c3.137-1.39 4.273-3.58 3.17-6.07zM118.938 190.73c54.08-32.335 88.292-14.59 110.32-23.65-15.962 8.836-64.383 3.895-106.55 28.984a3.267 3.267 0 0 1-3.77-5.335z" fill="#465780"/><path d="M159.372 62.698c-4.646-.52-7.97-2.12-9.49-5.37-2.515-5.377.81-17.248 11.22-17.874 5.75-.345 8.11 1.72 12.196 2.98-1.33-3.305-7.695-7.157-13.392-7.537-14.977-1-20.14 15.617-16.178 23.673 2.338 4.756 9.793 5.933 15.644 4.128z" fill="#F8DAB6"/><path d="M179.127 57.172c-1.36-2.843-5.562-4.592-9.51-3.39-3.457 1.054-7.607 2.396-10.804-.06-3-2.307-3.05-6.347-.184-9.318 3.055-3.168 5.64-3.204 10.975-2.75-1.897-1.583-6.168-1.682-8.51-1.45-15.237 1.522-14.915 25.5 3.274 21.044 4.62-1.13 4.835-3.213 14.757-4.076z" fill="#465780"/><path d="M167.885 61.244c-1.186.675-2.312 1.616-3.495 2.033-.3.43-.004.128-.586.66-.063.06-.56.465-.683.553-6.887 5.064-19.186 7.71-26.337.218-1.177-1.233-1.365-2.32-2.26-3.288-7.63 5.21-.31 22.417 19.724 11.374 2.82-1.554 6.99-3.702 9.474-5.52 2.87-.87 6.175-3.033 9.884-4.17 5.235-1.608 6.624-1.594 11.953-1.02-1.288-3.75-3.655-4.455-8.388-3.992-3.43.337-7.238 1.2-9.285 3.152z" fill="#F8DAB6"/><path d="M164.39 63.278c-3.237-1.49-24.58 8.708-22.88-13.51-13.956 1.485-6.337 22.606 12.153 17.966 5.947-1.493 8.712-3.92 10.726-4.456z" fill="#465780"/><path d="M181.354 77.536c-3.738-1.257-17.912 1.91-22.778 2.42-4.117.433-8.374 1.026-12.61.5-5.975-.74-5.757-1.395-9.83-3.192 2.746 5.55 15.29 6.59 22.604 7.133 3.172.235 23.58-.79 22.614-6.86z" fill="#F8DAB6"/><path d="M146.095 79.264c3.805 1.247 14.387-.797 18.67-1.307 5.056-.603 14.016-3.608 18.024-.727.313.158-.155.686 1.394-.207 1.25-.72 3.258-2.958 4.013-4.23 1.727-2.906.958-6.828-.97-8.616-6.874-6.37-25.73 5.565-31.813 8.98-6.43 3.61-9.436 4.377-17.89 3.445 2.47 1.648 4.89 2.56 8.57 2.662zM167.13 85.308l-6.235.36-.328 16.97 5.753-.577.81-16.752zM156.034 102.41l2.004.08 1.45.057-.324-14.584-.15-2.36-6.74-.402.825 16.812 2.934.398zM144.776 84.055c.363 3.5 1.12 7.275 1.555 10.864.677 5.576-.124 5.96 5.663 6.906l-1.24-13.064c-.136-1.652.04-1.8-.525-3.16l-5.452-1.547zM174.524 84.305l-5.51.872-1.515 16.818 4.842-1.676 2.182-16.015z" fill="#465780"/><path d="M166.916 54.27c-1.218-2.225-4.083-1.184-2.752-6.792 1.03-4.335 3.33-4.32 4.73-5.09-.086-.064-.23-.243-.284-.154-.052.09-.22-.117-.295-.14-1.945-.57-4.716-.28-6.447.635-1.687.892-3.357 2.482-4.116 4.49-1.006 2.66.332 4.723 1.68 5.873 2.022 1.724 4.62 1.455 7.484 1.176z" fill="#F8DAB6"/><path d="M176.45 83.955l-3.057 15.78c2.423-1.2 3.802-5.953 4.903-8.585 1.208-2.886 3.193-6.692 4.014-9.465l-5.86 2.27zM145.945 101.538l-2.993-15.86c-1.484-.78-3.995-1.55-5.53-2.214.156.953 6.308 16.583 8.523 18.074z" fill="#465780"/></g></svg>