<?xml version="1.0" encoding="UTF-8" standalone="no"?>
<svg width="32px" height="32px" viewBox="0 0 32 32" version="1.1" xmlns="http://www.w3.org/2000/svg" xmlns:xlink="http://www.w3.org/1999/xlink" xmlns:sketch="http://www.bohemiancoding.com/sketch/ns">
    <!-- Generator: Sketch 3.4.2 (15857) - http://www.bohemiancoding.com/sketch -->
    <title>VK_logo</title>
    <desc>Created with Sketch.</desc>
    <defs>
        <path id="path-1" d="M0,0.00316144578 L31.9968386,0.00316144578 L31.9968386,31.9953735 L0,31.9953735"></path>
    </defs>
    <g id="Page-1" stroke="none" stroke-width="1" fill="none" fill-rule="evenodd" sketch:type="MSPage">
        <g id="VK_logo" sketch:type="MSLayerGroup">
            <g id="Group-3">
                <mask id="mask-2" sketch:name="Clip 2" fill="white">
                    <use xlink:href="#path-1"></use>
                </mask>
                <g id="Clip-2"></g>
                <path d="M4.93046747,0.00316144578 L27.0663711,0.00316144578 C29.7893012,0.00316144578 31.9968386,2.21062169 31.9968386,4.93362892 L31.9968386,27.0695325 C31.9968386,29.7924627 29.7893012,32 27.0663711,32 L4.93046747,32 C2.20746024,32 0,29.7924627 0,27.0695325 L0,4.93362892 C0,2.21062169 2.20746024,0.00316144578 4.93046747,0.00316144578" id="Fill-1" fill="#4B6C91" sketch:type="MSShapeGroup" mask="url(#mask-2)"></path>
            </g>
            <path d="M15.7299663,22.4019277 L17.0388048,22.4019277 C17.0388048,22.4019277 17.4340627,22.3583614 17.6361639,22.1409157 C17.8219181,21.9410506 17.8159807,21.5659952 17.8159807,21.5659952 C17.8159807,21.5659952 17.7903807,19.8097735 18.6053398,19.5511518 C19.409041,19.2962313 20.4408289,21.2484627 21.5343807,21.9991904 C22.3613687,22.567094 22.9898024,22.4427952 22.9898024,22.4427952 L25.9141398,22.4019277 C25.9141398,22.4019277 27.4438169,22.307547 26.7184578,21.1048096 C26.6590843,21.0065735 26.2959036,20.2151325 24.5440771,18.5890699 C22.7102843,16.8871325 22.956106,17.1624867 25.1648771,14.2185639 C26.5100337,12.4257157 27.0477108,11.3312386 26.8796916,10.8624964 C26.7196145,10.4158843 25.730159,10.5338602 25.730159,10.5338602 L22.4376289,10.5542169 C22.4376289,10.5542169 22.1933494,10.5209831 22.012453,10.6292434 C21.8354892,10.7351133 21.7219084,10.9824771 21.7219084,10.9824771 C21.7219084,10.9824771 21.2005783,12.3697349 20.5058313,13.5497253 C19.0396916,16.0392482 18.453359,16.1710265 18.213706,16.0161928 C17.6561349,15.6558651 17.7954699,14.5689446 17.7954699,13.7965494 C17.7954699,11.3838265 18.1614265,10.3778699 17.0828337,10.1174747 C16.7249735,10.0311133 16.4613398,9.9739759 15.5459855,9.96464578 C14.3710843,9.95269398 13.3769253,9.96826988 12.8138795,10.2440867 C12.4392867,10.4275277 12.1502843,10.8362024 12.3264,10.8597205 C12.5440771,10.8887133 13.0368,10.9927325 13.2980434,11.3482024 C13.635547,11.8073831 13.6237494,12.8381687 13.6237494,12.8381687 C13.6237494,12.8381687 13.8176771,15.6783036 13.1709687,16.0309976 C12.7272096,16.2729639 12.1183614,15.7790072 10.8112193,13.520347 C10.1416096,12.363412 9.63585542,11.0844145 9.63585542,11.0844145 C9.63585542,11.0844145 9.53846747,10.8454554 9.36451084,10.7175325 C9.15354217,10.5625446 8.85875663,10.5134265 8.85875663,10.5134265 L5.7298506,10.5338602 C5.7298506,10.5338602 5.26026024,10.5469687 5.08769157,10.7512289 C4.93416867,10.9330506 5.07543133,11.3086458 5.07543133,11.3086458 C5.07543133,11.3086458 7.52485783,17.0394988 10.2986024,19.9275181 C12.8421783,22.5757301 15.7299663,22.4019277 15.7299663,22.4019277" id="Fill-4" fill="#FFFFFF" sketch:type="MSShapeGroup"></path>
        </g>
    </g>
</svg>